<?xml version="1.0" encoding="UTF-8"?>
<svg version="1.1" xmlns="http://www.w3.org/2000/svg" width="500" height="500">
<path d="M0 0 C0.76698722 -0.00235223 1.53397444 -0.00470446 2.3242037 -0.00712797 C4.91534028 -0.01382828 7.50642684 -0.01335944 10.09757137 -0.01294994 C11.96569376 -0.01624793 13.83381543 -0.01997336 15.70193619 -0.02409142 C20.85216758 -0.03412705 26.00238732 -0.03783073 31.15262711 -0.04048073 C36.70087978 -0.04437919 42.24912319 -0.05395789 47.79736996 -0.0626936 C61.20525658 -0.08247167 74.61314397 -0.09252622 88.02104154 -0.10142139 C94.33215519 -0.10580236 100.643268 -0.11116969 106.95438099 -0.11641026 C127.92942688 -0.13342438 148.9044726 -0.14794374 169.87952423 -0.155159 C171.23626618 -0.15563375 172.59300812 -0.15610964 173.94975006 -0.15658666 C174.62257416 -0.15682303 175.29539825 -0.15705941 175.98861095 -0.15730295 C179.39748461 -0.15850415 182.80635825 -0.1597196 186.2152319 -0.16094494 C186.89173423 -0.16118509 187.56823656 -0.16142524 188.26523897 -0.16167267 C210.19513942 -0.16956419 232.12498575 -0.19299222 254.05486258 -0.22550088 C277.23946464 -0.25980678 300.42403635 -0.27950975 323.60866779 -0.28280324 C336.24712945 -0.28496968 348.8855116 -0.29373787 361.52394962 -0.31926441 C372.28703103 -0.34095268 383.05001363 -0.34903105 393.81311441 -0.33929763 C399.304949 -0.33474745 404.79657962 -0.33668107 410.28838634 -0.35605907 C415.31773918 -0.37365204 420.34673867 -0.37272428 425.37609505 -0.35716178 C427.19380678 -0.35477984 429.01154272 -0.3591396 430.82921738 -0.37099043 C443.30648458 -0.44728867 452.88677729 0.47200458 462.68178463 8.86468983 C468.50656795 15.87131324 470.44284852 22.00934078 470.25600338 31.07172108 C470.24383785 32.04302967 470.23167233 33.01433826 470.21913815 34.01508045 C469.9564569 41.34790463 468.78048166 46.70266943 463.56850338 52.13422108 C463.03869869 52.71945545 462.508894 53.30468983 461.96303463 53.90765858 C452.5006785 63.12277975 440.53295002 62.70824989 428.19765377 62.64215565 C426.32348586 62.64676826 424.44932156 62.6531236 422.57516479 62.66106462 C417.44065089 62.67773146 412.30643515 62.66952353 407.1719203 62.65711975 C401.62854704 62.6480608 396.08522465 62.6620432 390.54186153 62.67303944 C379.68855388 62.69082016 368.83535692 62.68698662 357.98204494 62.67538887 C349.16084908 62.66635309 340.33968423 62.66513119 331.51848507 62.66948414 C330.26271319 62.67009707 329.00694132 62.67071 327.71311575 62.67134151 C325.1619904 62.67262042 322.61086505 62.67391727 320.05973971 62.67523187 C296.82303105 62.6863113 273.58638717 62.67482408 250.34969224 62.65386149 C229.14753187 62.63487974 207.9454676 62.63657828 186.74330807 62.65570545 C162.91007422 62.67713446 139.07689336 62.68553774 115.24364662 62.6732564 C112.70193832 62.67198221 110.16023001 62.67072473 107.61852169 62.66948414 C106.36797263 62.66886704 105.11742356 62.66824993 103.82897907 62.66761413 C95.01900635 62.66416133 86.20906774 62.6699881 77.3991003 62.67940235 C66.66179007 62.69062399 55.92459681 62.68757869 45.18729997 62.66627938 C39.70960538 62.65577131 34.23210577 62.65164317 28.75441265 62.66487598 C23.73827224 62.67681048 18.7225072 62.67021962 13.70640075 62.64896578 C11.8936169 62.64450424 10.08080123 62.64675589 8.26803792 62.65646893 C-4.19025041 62.71809226 -13.76567752 61.78280794 -23.54477787 53.40375233 C-29.37137481 46.39494731 -31.30124198 40.26049469 -31.11899662 31.19672108 C-31.11118168 30.22831287 -31.10336674 29.25990467 -31.09531498 28.26215076 C-30.85731971 20.90728908 -29.35841997 15.75719177 -24.43149662 10.13422108 C-23.27757207 7.82637198 -22.89712496 5.66191776 -22.43149662 3.13422108 C-21.18432865 2.93506092 -21.18432865 2.93506092 -19.91196537 2.73187733 C-18.82528568 2.55527576 -17.738606 2.3786742 -16.61899662 2.19672108 C-15.54005131 2.02269764 -14.461106 1.8486742 -13.34946537 1.66937733 C-4.19975229 -0.0086825 -4.19975229 -0.0086825 0 0 Z " fill="#080808" transform="translate(30.431496620178223,218.86577892303467)"/>
<path d="M0 0 C-0.79664062 0.37511719 -1.59328125 0.75023437 -2.4140625 1.13671875 C-8.21295226 3.93739908 -13.30737001 6.56807167 -18 11 C-17.690625 10.278125 -17.38125 9.55625 -17.0625 8.8125 C-16.07256093 6.19207305 -15.51200009 3.74450501 -15 1 C-13.0641649 0.63684334 -11.12624752 0.28477269 -9.1875 -0.0625 C-8.10855469 -0.25972656 -7.02960937 -0.45695313 -5.91796875 -0.66015625 C-3 -1 -3 -1 0 0 Z " fill="#F5F5F5" transform="translate(23,221)"/>
</svg>
