<?xml version="1.0" encoding="UTF-8"?>
<svg version="1.1" xmlns="http://www.w3.org/2000/svg" width="500" height="500">
<path d="M0 0 C0.70382813 -0.02900391 1.40765625 -0.05800781 2.1328125 -0.08789062 C7.30548661 -0.15038576 10.1221343 0.95860912 14.25 4.3125 C19.68453024 10.19990777 20.54582036 15.27273281 20.49050903 23.1139679 C20.49307231 24.44344705 20.49307231 24.44344705 20.49568737 25.79978436 C20.49898133 28.76935583 20.48798003 31.7387013 20.47705078 34.70825195 C20.47648665 36.83704116 20.47680327 38.96583077 20.47793579 41.09461975 C20.47851022 46.87516507 20.46674126 52.65562759 20.45278788 58.43615365 C20.44029558 64.4766525 20.4391112 70.51715319 20.43673706 76.55766296 C20.43051788 87.99687222 20.41410112 99.4360433 20.39403808 110.87523574 C20.37169272 123.8980732 20.36068908 136.92091247 20.35064721 149.94376433 C20.32973529 176.73336406 20.29455078 203.52292989 20.25 230.3125 C21.35767542 230.30973462 22.46535084 230.30696924 23.60659218 230.30412006 C50.54698854 230.2375494 77.48737425 230.18823602 104.42783546 230.15706348 C117.45598904 230.14158837 130.48408831 230.12048647 143.51220703 230.08618164 C154.86625529 230.05629909 166.22026422 230.03692969 177.57435071 230.03023452 C183.58738343 230.02632034 189.60030363 230.01710794 195.61330032 229.99530983 C201.27178954 229.97496287 206.93011979 229.96866263 212.58864212 229.97317696 C214.66632958 229.97235096 216.74402231 229.96637474 218.82167816 229.95488358 C221.65740704 229.93996765 224.49253493 229.94354326 227.32827759 229.95173645 C228.15124537 229.94299793 228.97421315 229.9342594 229.82211936 229.92525607 C236.35976351 229.97634497 241.28446318 231.91990974 246.25 236.3125 C246.25 236.9725 246.25 237.6325 246.25 238.3125 C246.91 238.3125 247.57 238.3125 248.25 238.3125 C250.73471902 242.09873851 250.54746462 245.94575454 250.5 250.3125 C250.50773437 251.0240625 250.51546875 251.735625 250.5234375 252.46875 C250.50937762 256.23679832 250.34678961 259.11739203 248.25 262.3125 C247.59 262.3125 246.93 262.3125 246.25 262.3125 C245.92 263.3025 245.59 264.2925 245.25 265.3125 C239.25066325 269.74679238 234.97158399 270.45825979 227.68904114 270.43275452 C226.80443055 270.43360894 225.91981997 270.43446337 225.008403 270.43534368 C222.03268126 270.43699591 219.05701541 270.43148128 216.08129883 270.42602539 C213.95280458 270.42574344 211.82431023 270.42590141 209.69581604 270.4264679 C203.90691364 270.42675555 198.11803183 270.42086391 192.32913423 270.41389394 C186.2832819 270.40765516 180.23742914 270.40705618 174.1915741 270.40586853 C162.73814561 270.40275677 151.28472664 270.39454545 139.83130234 270.38451904 C126.7939972 270.37335311 113.75669161 270.36784624 100.71938288 270.36282361 C73.89624998 270.35236272 47.07312552 270.33476626 20.25 270.3125 C20.25368717 271.41833183 20.25737434 272.52416367 20.26117325 273.66350555 C20.3499727 300.57120855 20.41570363 327.47889254 20.45724869 354.38671112 C20.47787359 367.39913643 20.50599301 380.41146494 20.55175781 393.42382812 C20.59162754 404.76544398 20.61743333 416.10698974 20.62635398 427.44867373 C20.63156844 433.45398417 20.64382322 439.45909405 20.67292023 445.46434021 C20.70009122 451.11794369 20.70844146 456.77126418 20.70243073 462.42492676 C20.70353019 464.49855589 20.71147386 466.57219459 20.7268219 468.64576721 C20.74677593 471.48094684 20.74191926 474.31506341 20.73101807 477.15026855 C20.74266943 477.96741066 20.7543208 478.78455276 20.76632524 479.62645674 C20.7016843 485.86266085 19.16945305 491.30191799 14.73185945 495.87802839 C9.92417118 499.98293739 6.64312786 500.54243108 0.5 500.625 C-0.20382813 500.65400391 -0.90765625 500.68300781 -1.6328125 500.71289062 C-6.80548661 500.77538576 -9.6221343 499.66639088 -13.75 496.3125 C-19.18453024 490.42509223 -20.04582036 485.35226719 -19.99050903 477.5110321 C-19.99221788 476.62471267 -19.99392673 475.73839324 -19.99568737 474.82521564 C-19.99898133 471.85564417 -19.98798003 468.8862987 -19.97705078 465.91674805 C-19.97648665 463.78795884 -19.97680327 461.65916923 -19.97793579 459.53038025 C-19.97851022 453.74983493 -19.96674126 447.96937241 -19.95278788 442.18884635 C-19.94029558 436.1483475 -19.9391112 430.10784681 -19.93673706 424.06733704 C-19.93051788 412.62812778 -19.91410112 401.1889567 -19.89403808 389.74976426 C-19.87169272 376.7269268 -19.86068908 363.70408753 -19.85064721 350.68123567 C-19.82973529 323.89163594 -19.79455078 297.10207011 -19.75 270.3125 C-20.85767542 270.31526538 -21.96535084 270.31803076 -23.10659218 270.32087994 C-50.04698854 270.3874506 -76.98737425 270.43676398 -103.92783546 270.46793652 C-116.95598904 270.48341163 -129.98408831 270.50451353 -143.01220703 270.53881836 C-154.36625529 270.56870091 -165.72026422 270.58807031 -177.07435071 270.59476548 C-183.08738343 270.59867966 -189.10030363 270.60789206 -195.11330032 270.62969017 C-200.77178954 270.65003713 -206.43011979 270.65633737 -212.08864212 270.65182304 C-214.16632958 270.65264904 -216.24402231 270.65862526 -218.32167816 270.67011642 C-221.15740704 270.68503235 -223.99253493 270.68145674 -226.82827759 270.67326355 C-227.65124537 270.68200207 -228.47421315 270.6907406 -229.32211936 270.69974393 C-235.85976351 270.64865503 -240.78446318 268.70509026 -245.75 264.3125 C-245.75 263.6525 -245.75 262.9925 -245.75 262.3125 C-246.41 262.3125 -247.07 262.3125 -247.75 262.3125 C-250.23471902 258.52626149 -250.04746462 254.67924546 -250 250.3125 C-250.00773438 249.6009375 -250.01546875 248.889375 -250.0234375 248.15625 C-250.00937762 244.38820168 -249.84678961 241.50760797 -247.75 238.3125 C-247.09 238.3125 -246.43 238.3125 -245.75 238.3125 C-245.42 237.3225 -245.09 236.3325 -244.75 235.3125 C-238.75066325 230.87820762 -234.47158399 230.16674021 -227.18904114 230.19224548 C-226.30443055 230.19139106 -225.41981997 230.19053663 -224.508403 230.18965632 C-221.53268126 230.18800409 -218.55701541 230.19351872 -215.58129883 230.19897461 C-213.45280458 230.19925656 -211.32431023 230.19909859 -209.19581604 230.1985321 C-203.40691364 230.19824445 -197.61803183 230.20413609 -191.82913423 230.21110606 C-185.7832819 230.21734484 -179.73742914 230.21794382 -173.6915741 230.21913147 C-162.23814561 230.22224323 -150.78472664 230.23045455 -139.33130234 230.24048096 C-126.2939972 230.25164689 -113.25669161 230.25715376 -100.21938288 230.26217639 C-73.39624998 230.27263728 -46.57312552 230.29023374 -19.75 230.3125 C-19.75368717 229.20666817 -19.75737434 228.10083633 -19.76117325 226.96149445 C-19.8499727 200.05379145 -19.91570363 173.14610746 -19.95724869 146.23828888 C-19.97787359 133.22586357 -20.00599301 120.21353506 -20.05175781 107.20117188 C-20.09162754 95.85955602 -20.11743333 84.51801026 -20.12635398 73.17632627 C-20.13156844 67.17101583 -20.14382322 61.16590595 -20.17292023 55.16065979 C-20.20009122 49.50705631 -20.20844146 43.85373582 -20.20243073 38.20007324 C-20.20353019 36.12644411 -20.21147386 34.05280541 -20.2268219 31.97923279 C-20.24677593 29.14405316 -20.24191926 26.30993659 -20.23101807 23.47473145 C-20.24266943 22.65758934 -20.2543208 21.84044724 -20.26632524 20.99854326 C-20.2016843 14.76233915 -18.66945305 9.32308201 -14.23185945 4.74697161 C-9.42417118 0.64206261 -6.14312786 0.08256892 0 0 Z " fill="#060606" transform="translate(249.75,-0.3125)"/>
</svg>
