<?xml version="1.0" encoding="UTF-8"?>
<svg version="1.1" xmlns="http://www.w3.org/2000/svg" width="500" height="500">
<path d="M0 0 C2.14588246 1.25693308 3.82439767 2.4276215 5.65234375 4.125 C6.6170459 5.00446289 7.58174805 5.88392578 8.57568359 6.79003906 C13.22991764 12.29489212 13.69836793 19.37710125 14.79296875 26.26171875 C15.04662341 27.74788979 15.30233738 29.23371067 15.55999756 30.7191925 C16.23075769 34.61901391 16.87358087 38.52293451 17.51049805 42.42840576 C18.15809363 46.36855079 18.83211541 50.30415605 19.50390625 54.24023438 C20.70766543 61.31642904 21.88959805 68.39589636 23.04846191 75.47958374 C23.44220583 77.85647336 23.84657099 80.23163525 24.26306152 82.60464478 C24.44792114 83.6629953 24.63278076 84.72134583 24.82324219 85.81176758 C24.98677185 86.7271077 25.15030151 87.64244781 25.31878662 88.58552551 C26.11659434 94.65948454 25.39848272 100.33747548 21.96875 105.5 C17.30872404 111.25243561 12.3837381 113.47175377 5.1875 114.97265625 C4.41921371 115.13775696 3.65092743 115.30285767 2.85935974 115.47296143 C-8.33463926 117.82136889 -19.6118942 119.75496674 -30.8815918 121.69921875 C-33.49748545 122.15207969 -36.11236831 122.60853815 -38.72631836 123.07226562 C-42.55556469 123.75021959 -46.38678945 124.41570501 -50.21875 125.078125 C-51.37418808 125.28431458 -52.52962616 125.49050415 -53.72007751 125.70294189 C-72.81452983 128.94744178 -72.81452983 128.94744178 -80.5625 124.4609375 C-85.30176714 120.91426494 -88.49436097 116.75227838 -90.34765625 111.125 C-91.25546166 104.0631184 -90.68033175 97.91456931 -86.34765625 92.125 C-81.2620995 86.71406402 -76.19683462 84.27719909 -68.86328125 83.08984375 C-67.33767578 82.83557617 -67.33767578 82.83557617 -65.78125 82.57617188 C-64.73066406 82.40666016 -63.68007813 82.23714844 -62.59765625 82.0625 C-60.49811085 81.72103826 -58.39911482 81.376175 -56.30078125 81.02734375 C-54.91101074 80.80292603 -54.91101074 80.80292603 -53.49316406 80.57397461 C-51.37527872 80.33504954 -51.37527872 80.33504954 -50.34765625 79.125 C-60.43818029 74.09423586 -70.44213621 70.01990998 -81.34765625 67.125 C-82.518125 66.80402344 -83.68859375 66.48304688 -84.89453125 66.15234375 C-103.59773332 61.83776387 -124.76658499 62.43223456 -143.34765625 67.125 C-144.02086914 67.28597168 -144.69408203 67.44694336 -145.38769531 67.61279297 C-161.95937271 71.63778508 -177.68992852 78.89165881 -191.34765625 89.125 C-192.23195313 89.78757812 -193.11625 90.45015625 -194.02734375 91.1328125 C-206.32015313 100.78890334 -217.22505093 111.72121356 -225.34765625 125.125 C-225.73824219 125.76759766 -226.12882812 126.41019531 -226.53125 127.07226562 C-233.20875478 138.19788462 -237.58837197 149.04089375 -240.97265625 161.5625 C-241.17922852 162.3253833 -241.38580078 163.0882666 -241.59863281 163.87426758 C-247.49135216 186.53249208 -247.30691367 210.50265422 -241.34765625 233.125 C-241.13866699 233.93614258 -240.92967773 234.74728516 -240.71435547 235.58300781 C-235.88972851 253.76119028 -227.58816019 268.91226409 -215.34765625 283.125 C-214.16816406 284.49785156 -214.16816406 284.49785156 -212.96484375 285.8984375 C-210.80028916 288.34958817 -208.59001759 290.74502082 -206.34765625 293.125 C-205.65414062 293.88296875 -204.960625 294.6409375 -204.24609375 295.421875 C-182.81575108 318.02114545 -148.26688019 330.11011089 -117.6640625 331.34765625 C-82.51696911 332.23881677 -47.26501064 320.15108799 -21.34765625 296.125 C-20.538125 295.38507813 -19.72859375 294.64515625 -18.89453125 293.8828125 C1.33311965 274.57460028 13.97958432 249.15837739 19.08691406 221.83081055 C20.66785616 213.46426166 22.55598346 207.51769723 29.65234375 202.125 C35.09281499 198.80026758 40.4221281 198.16864797 46.65234375 199.125 C53.71469926 201.27803033 57.76948219 204.6904076 61.59375 210.94140625 C65.37970721 218.75081614 63.54497904 227.02994946 61.65234375 235.125 C61.4315918 236.07270264 61.21083984 237.02040527 60.98339844 237.99682617 C49.64560582 284.87069748 21.35204882 324.73707423 -19.7512207 350.41577148 C-60.2974193 374.55488129 -110.34697309 381.60528378 -156.01220703 370.47558594 C-167.5820785 367.51359537 -178.4550933 363.29028856 -189.21582031 358.13964844 C-191.28801973 357.15338404 -193.37395439 356.20366719 -195.46484375 355.2578125 C-209.76476762 348.63427063 -222.03222085 339.03182245 -233.34765625 328.125 C-234.32605469 327.20122559 -234.32605469 327.20122559 -235.32421875 326.25878906 C-268.22306616 295.08916553 -288.52881185 252.81657603 -290.34765625 207.125 C-290.38850342 206.15699463 -290.38850342 206.15699463 -290.43017578 205.16943359 C-291.15861972 185.21739988 -288.75410557 165.3699512 -282.98291016 146.25683594 C-282.37394678 144.21322786 -281.8144372 142.16201531 -281.265625 140.1015625 C-276.24471705 121.89596295 -266.71393505 106.04582417 -255.34765625 91.125 C-254.64898437 90.19429688 -253.9503125 89.26359375 -253.23046875 88.3046875 C-228.52168336 56.41907648 -194.16168967 34.60717308 -155.34765625 24.125 C-154.58469238 23.91182129 -153.82172852 23.69864258 -153.03564453 23.47900391 C-139.55169058 19.88347294 -125.95859269 19.73330624 -112.09765625 19.6875 C-111.20722626 19.68123596 -110.31679626 19.67497192 -109.39938354 19.66851807 C-93.75519555 19.59901795 -78.54000517 21.04473435 -63.53515625 25.75 C-62.72747803 25.9972583 -61.9197998 26.2445166 -61.08764648 26.49926758 C-49.62880302 30.1437141 -37.4858079 34.56746865 -27.34765625 41.125 C-27.81171875 39.6090625 -27.81171875 39.6090625 -28.28515625 38.0625 C-30.69987407 29.44829388 -31.91971158 19.43068673 -29.34765625 10.75 C-22.17676118 1.33820022 -11.94171803 -4.45082336 0 0 Z " fill="#030303" transform="translate(363.34765625,62.875)"/>
</svg>
